<?xml version="1.0" encoding="UTF-8" standalone="no"?>
<!-- Created with Inkscape (http://www.inkscape.org/) -->

<svg
   xmlns:dc="http://purl.org/dc/elements/1.1/"
   xmlns:cc="http://creativecommons.org/ns#"
   xmlns:rdf="http://www.w3.org/1999/02/22-rdf-syntax-ns#"
   xmlns:svg="http://www.w3.org/2000/svg"
   xmlns="http://www.w3.org/2000/svg"
   xmlns:sodipodi="http://sodipodi.sourceforge.net/DTD/sodipodi-0.dtd"
   xmlns:inkscape="http://www.inkscape.org/namespaces/inkscape"
   id="svg2"
   version="1.1"
   inkscape:version="0.91 r13725"
   xml:space="preserve"
   width="479.73376"
   height="479.73376"
   viewBox="0 0 479.73376 479.73377"
   sodipodi:docname="live_offline.svg"><metadata
     id="metadata8"><rdf:RDF><cc:Work
         rdf:about=""><dc:format>image/svg+xml</dc:format><dc:type
           rdf:resource="http://purl.org/dc/dcmitype/StillImage" /><dc:title /></cc:Work></rdf:RDF></metadata><defs
     id="defs6"><clipPath
       clipPathUnits="userSpaceOnUse"
       id="clipPath18"><path
         d="m 0,325.873 383.787,0 L 383.787,0 0,0 0,325.873 Z"
         id="path20"
         inkscape:connector-curvature="0" /></clipPath><clipPath
       clipPathUnits="userSpaceOnUse"
       id="clipPath42"><path
         d="m 0,325.873 383.787,0 L 383.787,0 0,0 0,325.873 Z"
         id="path44"
         inkscape:connector-curvature="0" /></clipPath><clipPath
       clipPathUnits="userSpaceOnUse"
       id="clipPath42-9"><path
         d="m 0,325.873 383.787,0 L 383.787,0 0,0 0,325.873 Z"
         id="path44-7"
         inkscape:connector-curvature="0" /></clipPath><clipPath
       clipPathUnits="userSpaceOnUse"
       id="clipPath18-3"><path
         d="m 0,325.873 383.787,0 L 383.787,0 0,0 0,325.873 Z"
         id="path20-0"
         inkscape:connector-curvature="0" /></clipPath></defs><sodipodi:namedview
     pagecolor="#ffffff"
     bordercolor="#666666"
     borderopacity="1"
     objecttolerance="10"
     gridtolerance="10"
     guidetolerance="10"
     inkscape:pageopacity="0"
     inkscape:pageshadow="2"
     inkscape:window-width="1920"
     inkscape:window-height="1016"
     id="namedview4"
     showgrid="false"
     inkscape:zoom="0.8193484"
     inkscape:cx="-15.943049"
     inkscape:cy="196.16737"
     inkscape:window-x="0"
     inkscape:window-y="35"
     inkscape:window-maximized="1"
     inkscape:current-layer="layer4" /><g
     inkscape:groupmode="layer"
     id="layer3"
     inkscape:label="Screen-Inner-Offline"
     style="display:inline"
     transform="translate(0,72.392515)"><path
       d="m 479.73387,277.13125 c 0,15.13375 -12.27249,27.41 -27.415,27.41 l -424.906245,0 c -15.13875,0 -27.4125,-12.27625 -27.4125,-27.41 l 0,-285.9112524 c 0,-15.1437496 12.27375,-27.4162506 27.4125,-27.4162506 l 424.906255,0 c 15.1425,0 27.415,12.272501 27.415,27.4162506 l 0,285.9112524 z"
       style="display:inline;fill:#e6e7e8;fill-opacity:1;fill-rule:nonzero;stroke:none"
       id="path28"
       inkscape:connector-curvature="0" /></g><g
     inkscape:groupmode="layer"
     id="layer4"
     inkscape:label="Screen2"
     style="display:inline"
     transform="translate(0,72.392515)"><path
       d="m 296.20375,348.57499 -112.48626,0 0,-53.0725 112.48626,0 0,53.0725 z"
       style="display:inline;fill:#929497;fill-opacity:1;fill-rule:nonzero;stroke:none"
       id="path12"
       inkscape:connector-curvature="0" /></g><g
     inkscape:groupmode="layer"
     id="layer2"
     inkscape:label="Screen"
     style="display:inline"
     transform="translate(0,72.392515)"><g
       transform="matrix(1.25,0,0,-1.25,0,371.14474)"
       style="display:inline"
       id="g38"><g
         id="g40"
         clip-path="url(#clipPath42-9)"><g
           id="g46"
           transform="translate(361.8555,325.873)"><path
             d="m 0,0 -339.926,0 c -12.11,0 -21.929,-9.818 -21.929,-21.934 l 0,-228.728 c 0,-12.108 9.819,-21.928 21.929,-21.928 l 339.926,0 c 12.113,0 21.932,9.82 21.932,21.928 l 0,228.728 C 21.932,-9.818 12.113,0 0,0 m 0,-14.209 c 4.258,0 7.723,-3.465 7.723,-7.725 l 0,-228.728 c 0,-4.256 -3.465,-7.719 -7.723,-7.719 l -339.926,0 c -4.257,0 -7.72,3.463 -7.72,7.719 l 0,228.728 c 0,4.26 3.463,7.725 7.72,7.725 l 339.926,0"
             style="fill:#6d6e70;fill-opacity:1;fill-rule:nonzero;stroke:none"
             id="path48"
             inkscape:connector-curvature="0" /></g></g></g><g
       transform="matrix(1.25,0,0,-1.25,-5e-6,371.14499)"
       style="display:inline"
       id="g14"><g
         id="g16"
         clip-path="url(#clipPath18-3)"><g
           id="g22"
           transform="translate(256.7539,10.9619)"><path
             d="m 0,0 c 0,-6.052 -4.903,-10.962 -10.964,-10.962 l -107.796,0 c -6.056,0 -10.969,4.91 -10.969,10.962 l 0,3.358 c 0,6.061 4.913,10.968 10.969,10.968 l 107.796,0 C -4.903,14.326 0,9.419 0,3.358 L 0,0 Z"
             style="fill:#6d6e70;fill-opacity:1;fill-rule:nonzero;stroke:none"
             id="path24"
             inkscape:connector-curvature="0" /></g><g
           id="g26"
           transform="translate(383.7871,75.2109)" /><g
           id="g30"
           transform="translate(37.1807,295.8252)" /></g></g></g><g
     inkscape:groupmode="layer"
     id="layer5"
     inkscape:label="Play"
     transform="translate(0,72.392515)"><path
       sodipodi:type="star"
       style="opacity:0.9;fill:#6d6e70;fill-opacity:1;fill-rule:nonzero;stroke:none;stroke-width:1.95513523;stroke-linecap:round;stroke-linejoin:round;stroke-miterlimit:4;stroke-dasharray:none;stroke-opacity:1"
       id="path4169"
       sodipodi:sides="3"
       sodipodi:cx="218.31892"
       sodipodi:cy="137.54248"
       sodipodi:r1="124.23252"
       sodipodi:r2="62.116261"
       sodipodi:arg1="0"
       sodipodi:arg2="1.0471976"
       inkscape:flatsided="true"
       inkscape:rounded="0"
       inkscape:randomized="0"
       d="M 342.55145,137.54248 156.20266,245.131 l 0,-215.177039 z"
       inkscape:transform-center-x="-31.05813" /></g></svg>